<svg width="100" height="100" viewBox="0 0 100 100" fill="none" xmlns="http://www.w3.org/2000/svg">
<circle cx="50" cy="50" r="50" fill="#91C1FA" fill-opacity="0.2"/>
<path d="M60.7129 71.1038C60.7129 71.8836 60.7129 72.5688 60.7129 73.3375C61.7769 73.3375 62.8102 73.3347 63.8435 73.3375C66.0187 73.3459 67.3724 74.6939 67.3835 76.8636C67.3863 77.4039 67.3835 77.9414 67.3835 78.5152C70.1269 78.5152 72.7979 78.5152 75.5748 78.5152C75.5748 78.2283 75.5748 77.9414 75.5748 77.6546C75.5748 71.9477 75.5748 66.238 75.5748 60.5312C75.5748 60.3083 75.4968 60.0243 75.6026 59.8738C75.792 59.6065 76.0817 59.2695 76.3574 59.2444C76.5663 59.2249 76.8587 59.6093 77.037 59.8683C77.1317 60.0048 77.0648 60.2554 77.0648 60.4532C77.0648 66.5583 77.0648 72.6635 77.0648 78.7686C77.0648 79.8911 76.9089 80.0443 75.7697 80.0443C73.0152 80.0443 70.2606 80.0443 67.3835 80.0443C67.3835 80.8186 67.3835 81.5761 67.3835 82.3337C67.3779 84.6983 66.0661 86.0018 63.6875 86.0018C54.7275 86.0018 45.7703 86.0018 36.8104 86.0018C34.4346 86.0018 33.1283 84.6955 33.1255 82.3226C33.1255 81.604 33.1255 80.8854 33.1255 80.0443C32.8415 80.0443 32.5824 80.0443 32.3234 80.0443C29.7415 80.0443 27.1624 80.0471 24.5806 80.0443C23.6503 80.0443 23.447 79.8409 23.447 78.9079C23.4442 72.7025 23.447 66.4998 23.4414 60.2944C23.4414 59.7541 23.5083 59.2277 24.1656 59.2165C24.8758 59.2026 24.9398 59.7541 24.9371 60.3223C24.9315 66.0793 24.9343 71.8363 24.9343 77.5961C24.9343 77.8885 24.9343 78.181 24.9343 78.5152C27.6666 78.5152 30.3348 78.5152 33.1255 78.5152C33.1255 78.2478 33.1478 77.9609 33.1228 77.6796C32.847 74.7802 34.4457 73.0701 37.4955 73.3347C38.2308 73.3988 38.98 73.3431 39.7738 73.3431C39.7738 72.605 39.7738 71.9003 39.7738 71.1093C38.7405 71.1093 37.7072 71.1121 36.6739 71.1093C34.4931 71.101 33.1339 69.7557 33.1283 67.5916C33.1228 65.681 33.1172 63.7703 33.1283 61.8597C33.1395 59.8376 34.5265 58.4562 36.5597 58.4534C45.6924 58.4478 54.825 58.4478 63.9577 58.4534C65.9853 58.4534 67.3696 59.8404 67.3807 61.8681C67.3918 63.8038 67.3918 65.7395 67.3807 67.6752C67.3696 69.7362 65.9825 71.0982 63.8992 71.1093C62.8603 71.1093 61.8214 71.1038 60.7129 71.1038ZM50.1765 69.6137C54.7415 69.6137 59.3036 69.6165 63.8686 69.6109C65.1832 69.6081 65.8851 68.9035 65.8934 67.5861C65.9018 65.7256 65.9018 63.865 65.8934 62.0045C65.8878 60.6342 65.2027 59.9351 63.8407 59.9351C54.786 59.9323 45.7341 59.9323 36.6795 59.9351C35.3119 59.9351 34.624 60.6286 34.6184 61.9962C34.6101 63.7815 34.6156 65.5668 34.6184 67.3549C34.6212 68.9787 35.2479 69.6137 36.8577 69.6137C41.2945 69.6137 45.7341 69.6137 50.1765 69.6137ZM50.2517 84.5089C54.7916 84.5089 59.3315 84.5117 63.8686 84.5061C65.1832 84.5034 65.8851 83.7959 65.8906 82.4785C65.899 80.618 65.899 78.7575 65.8906 76.897C65.8851 75.5267 65.1971 74.8276 63.8351 74.8276C54.7805 74.8248 45.7286 74.8248 36.6739 74.8276C35.3064 74.8276 34.6184 75.5211 34.6156 76.8914C34.6101 78.6767 34.6128 80.462 34.6156 82.2501C34.6184 83.8739 35.2451 84.5061 36.8577 84.5089C41.3224 84.5089 45.7871 84.5089 50.2517 84.5089ZM59.1588 71.1567C53.1845 71.1567 47.2716 71.1567 41.3809 71.1567C41.3809 71.9143 41.3809 72.6161 41.3809 73.2985C47.3356 73.2985 53.2319 73.2985 59.1588 73.2985C59.1588 72.5744 59.1588 71.8892 59.1588 71.1567Z" fill="#91C1FA"/>
<path d="M27.2318 34.376C24.7836 25.5107 30.3039 18.7371 36.1333 16.7485C42.6674 14.5203 50.6442 17.2888 53.8444 24.7587C57.493 22.6114 61.2475 22.305 64.9741 24.444C68.7007 26.5858 70.3579 29.9782 70.3523 34.1811C71.3995 34.312 72.4217 34.3538 73.3993 34.5794C78.4795 35.7436 81.7883 40.2667 81.5377 45.631C81.312 50.455 77.4072 54.6467 72.4858 55.3347C71.9482 55.4099 71.3995 55.4544 70.8564 55.4544C56.8608 55.46 42.8624 55.4656 28.8667 55.4544C23.5832 55.4516 19.2411 51.7863 18.347 46.6254C17.3694 40.9881 21.096 35.5932 26.75 34.468C26.892 34.4429 27.0369 34.415 27.2318 34.376ZM49.8866 53.9727V53.9699C56.9833 53.9699 64.0828 54.0312 71.1795 53.9449C74.778 53.9003 77.5019 52.1289 79.1034 48.9092C80.7216 45.6617 80.4375 42.4336 78.2901 39.498C76.2346 36.6878 73.3687 35.5319 69.9094 35.8271C68.8928 35.9135 68.6505 35.6712 68.7536 34.6601C68.7647 34.5627 68.7814 34.4624 68.7926 34.3649C69.4025 28.8976 64.3084 23.8842 58.8522 24.561C57.1115 24.7755 55.5462 25.3715 54.148 26.4327C53.435 26.973 52.9921 26.8337 52.6663 26.0177C52.6022 25.8561 52.5577 25.6862 52.4908 25.5275C50.4325 20.6701 46.7644 17.8793 41.5227 17.5339C32.4485 16.9351 25.8559 25.7614 28.8472 34.3315C29.2288 35.4205 29.0394 35.7185 27.9059 35.8132C22.7059 36.2561 18.8595 41.2833 19.8148 46.3942C20.6532 50.8783 24.3324 53.9616 28.8918 53.9699C35.891 53.9811 42.8874 53.9727 49.8866 53.9727Z" fill="#91C1FA"/>
<path d="M72.6016 23.4126C72.6127 20.5467 74.9662 18.2155 77.835 18.2266C80.701 18.2377 83.0322 20.5884 83.021 23.46C83.0127 26.326 80.6564 28.6572 77.7876 28.6488C74.9245 28.6377 72.5905 26.2814 72.6016 23.4126ZM81.5309 23.4711C81.5449 21.4129 79.8793 19.7222 77.8239 19.7167C75.799 19.7111 74.1195 21.3488 74.0889 23.3681C74.0555 25.4291 75.7099 27.1365 77.757 27.1615C79.8153 27.1838 81.517 25.521 81.5309 23.4711Z" fill="#91C1FA"/>
<path d="M20.4285 18.9767C22.8823 18.96 24.9071 20.943 24.9322 23.3856C24.9572 25.8673 22.9407 27.9088 20.4647 27.9088C18.0165 27.9088 16.0084 25.9062 16 23.4608C15.9917 21.0071 17.9803 18.9934 20.4285 18.9767ZM23.4421 23.4191C23.4309 21.7842 22.0773 20.4556 20.4396 20.4668C18.8047 20.4779 17.4762 21.8287 17.4873 23.4664C17.4985 25.1013 18.8521 26.4326 20.487 26.4187C22.1219 26.4076 23.4532 25.054 23.4421 23.4191Z" fill="#91C1FA"/>
<path d="M69.2702 18.2307C69.8579 18.2418 70.3536 18.7376 70.362 19.3252C70.3704 19.9436 69.8467 20.4672 69.2312 20.456C68.6129 20.4449 68.1088 19.9046 68.1422 19.2863C68.1728 18.6958 68.6825 18.2195 69.2702 18.2307Z" fill="#91C1FA"/>
<path d="M18.6122 35.3465C17.9939 35.3521 17.4759 34.8229 17.4926 34.2046C17.5065 33.6169 18.0078 33.1239 18.5955 33.1211C19.1832 33.1156 19.6901 33.6002 19.7152 34.1879C19.7402 34.8034 19.2305 35.3409 18.6122 35.3465Z" fill="#91C1FA"/>
<path d="M81.1398 33.1214C81.7275 33.1075 82.24 33.5837 82.2734 34.1742C82.3068 34.7897 81.8055 35.3328 81.1872 35.3468C80.5717 35.3607 80.0453 34.8371 80.0508 34.2215C80.0592 33.6311 80.5522 33.1325 81.1398 33.1214Z" fill="#91C1FA"/>
<path d="M28.3218 62.1686C28.9123 62.1881 29.3997 62.6922 29.3969 63.2798C29.3969 63.8982 28.8622 64.4134 28.2466 64.3911C27.6283 64.3689 27.1326 63.8202 27.1743 63.2047C27.2161 62.617 27.7342 62.1491 28.3218 62.1686Z" fill="#91C1FA"/>
<path d="M81.8871 65.1487C82.4747 65.1348 82.9872 65.6083 83.0234 66.1988C83.0596 66.8143 82.5555 67.3574 81.9372 67.3741C81.3189 67.388 80.7953 66.8672 80.8008 66.2489C80.8064 65.6612 81.2994 65.1627 81.8871 65.1487Z" fill="#91C1FA"/>
<path d="M71.1019 72.2468C71.0852 72.8651 70.5393 73.3664 69.9238 73.3274C69.3333 73.2912 68.8626 72.7759 68.8793 72.1883C68.896 71.5699 69.4419 71.0686 70.0575 71.1076C70.6452 71.1466 71.1186 71.6591 71.1019 72.2468Z" fill="#91C1FA"/>
<path d="M19.3945 81.5175C19.3723 82.1386 18.8375 82.6176 18.208 82.5814C17.6092 82.5452 17.1608 82.055 17.1803 81.4479C17.197 80.8546 17.6928 80.3672 18.2777 80.3672C18.8821 80.3644 19.4168 80.9159 19.3945 81.5175Z" fill="#91C1FA"/>
<path d="M41.3241 66.6697C39.7309 67.6613 38.4275 67.5833 37.461 66.4386C36.6031 65.422 36.6505 63.943 37.5696 62.9794C38.5639 61.9405 39.8953 61.8987 41.2962 62.893C41.4438 62.7955 41.6054 62.6869 41.7669 62.5866C43.0453 61.7929 44.6524 62.1382 45.3793 63.4473C45.6578 63.9486 45.9726 64.0489 46.4906 64.0461C51.4538 64.0294 56.4198 64.0349 61.3831 64.0349C61.6059 64.0349 61.8287 64.0349 62.0543 64.0377C62.5417 64.0433 62.8954 64.2522 62.8954 64.773C62.8954 65.2966 62.525 65.4916 62.0515 65.5167C61.8287 65.5278 61.6059 65.525 61.3803 65.525C56.4171 65.525 51.451 65.5306 46.4878 65.5167C45.9726 65.5139 45.6606 65.6114 45.3765 66.1127C44.566 67.5415 42.9701 67.7309 41.3241 66.6697ZM40.5665 64.7981C40.5832 64.2104 40.1097 63.6952 39.522 63.6589C38.9065 63.62 38.3606 64.1213 38.3439 64.7396C38.3272 65.3273 38.7979 65.8425 39.3883 65.8788C40.0011 65.9177 40.5498 65.4164 40.5665 64.7981ZM44.2903 64.7758C44.2931 64.1881 43.8085 63.684 43.218 63.6617C42.6025 63.6367 42.0677 64.1491 42.0649 64.7675C42.0621 65.3551 42.5468 65.862 43.1344 65.8843C43.75 65.9066 44.2875 65.3913 44.2903 64.7758Z" fill="#91C1FA"/>
<path d="M41.3338 81.5375C39.8381 82.5513 38.479 82.4817 37.4958 81.3676C36.6491 80.4095 36.6463 78.9222 37.493 77.9613C38.4762 76.8444 39.8465 76.7748 41.3338 77.7942C42.1332 77.1424 43.0634 76.7887 44.0633 77.2455C44.5758 77.4794 45.0966 77.8861 45.389 78.3568C45.6926 78.8442 46.0018 78.9417 46.5115 78.9417C51.4942 78.9277 56.4769 78.9333 61.4624 78.9333C61.7103 78.9333 62.0055 78.8553 62.1949 78.964C62.4762 79.1255 62.8662 79.4207 62.8662 79.6603C62.8662 79.9054 62.4874 80.2089 62.2116 80.3788C62.0278 80.4902 61.7298 80.4206 61.4819 80.4234C56.4741 80.4262 51.4664 80.429 46.4586 80.4178C45.9767 80.4178 45.6759 80.4986 45.4058 80.986C44.5841 82.4427 42.9102 82.6543 41.3338 81.5375ZM40.5734 79.6853C40.5846 79.0976 40.1083 78.5879 39.5178 78.5545C38.9023 78.5211 38.362 79.0252 38.3481 79.6435C38.3369 80.2312 38.8132 80.7437 39.4037 80.7743C40.0192 80.8078 40.5623 80.3008 40.5734 79.6853ZM43.2055 78.5517C42.6178 78.5406 42.1081 79.0169 42.0747 79.6073C42.0412 80.2229 42.5481 80.766 43.1637 80.7771C43.7514 80.7882 44.261 80.3092 44.2945 79.7215C44.3279 79.106 43.8238 78.5657 43.2055 78.5517Z" fill="#91C1FA"/>
<path d="M46.1553 47.2691C50.3248 47.2691 54.497 47.2691 58.6664 47.2691C58.8893 47.2691 59.165 47.2051 59.3237 47.3081C59.5661 47.4669 59.8975 47.7593 59.8836 47.971C59.8641 48.2356 59.5688 48.5308 59.3237 48.7147C59.1761 48.8233 58.892 48.7536 58.6692 48.7536C50.3276 48.7536 41.9887 48.7536 33.647 48.7536C33.4492 48.7536 33.1902 48.8233 33.0649 48.7258C32.8031 48.5225 32.4661 48.2412 32.4382 47.9654C32.4187 47.7565 32.8003 47.4557 33.0649 47.2914C33.2264 47.1911 33.4994 47.2636 33.7222 47.2636C37.8638 47.2691 42.0109 47.2691 46.1553 47.2691Z" fill="#91C1FA"/>
<path d="M57.3292 43.5419C59.8108 43.5419 62.2925 43.5475 64.7769 43.5391C65.3144 43.5364 65.8464 43.5976 65.8687 44.2522C65.8937 44.9596 65.3478 45.0376 64.7769 45.0376C59.7886 45.032 54.7975 45.032 49.8092 45.0376C49.2494 45.0376 48.7675 44.9039 48.7898 44.2522C48.8121 43.6478 49.2856 43.5196 49.8092 43.5447C49.9568 43.5503 50.1072 43.5447 50.2548 43.5447C52.6139 43.5419 54.9729 43.5419 57.3292 43.5419Z" fill="#91C1FA"/>
<path d="M40.7154 19.7148C40.7934 19.7316 41.1415 19.7148 41.342 19.8792C41.5287 20.0324 41.7041 20.478 41.615 20.62C41.4479 20.8818 41.0858 21.1631 40.7934 21.1771C39.2225 21.2551 37.7491 21.6338 36.4122 22.4555C33.8109 24.0514 32.3347 26.3715 32.0395 29.424C32.0144 29.6719 32.0757 29.9644 31.9615 30.1566C31.7944 30.4379 31.5381 30.7916 31.2624 30.8529C30.8056 30.9531 30.5048 30.5771 30.5243 30.1315C30.555 29.3906 30.6107 28.6414 30.7611 27.9172C31.6885 23.369 35.9026 19.8374 40.7154 19.7148Z" fill="#91C1FA"/>
</svg>
