<svg width="178" height="111" viewBox="0 0 178 111" fill="none" xmlns="http://www.w3.org/2000/svg">
<path fill-rule="evenodd" clip-rule="evenodd" d="M42.7653 45.4176C49.2364 21.9659 68.874 4.91285 92.0936 4.91096L96.3921 4.91062C117.445 4.9089 135.283 20.1993 141.406 41.334C146.059 41.5972 150.616 42.8421 154.783 44.9973C159.499 47.4359 163.585 50.9715 166.71 55.3179C169.835 59.6644 171.911 64.6995 172.771 70.0159C173.631 75.3322 173.251 80.7804 171.66 85.9194C170.07 91.0584 167.314 95.7439 163.616 99.5967C159.918 103.449 155.382 106.361 150.375 108.096C145.368 109.831 140.03 110.341 134.794 109.584C129.558 108.827 124.57 106.824 120.235 103.739C120.018 103.584 119.812 103.419 119.617 103.246C112.755 107.557 104.828 110.018 96.3836 110.018L30.8474 110.019C13.8107 110.02 0.000984546 95.2617 0.00245899 77.0548C0.00393344 58.8478 13.8161 44.0871 30.8527 44.0857L33.657 44.0855C36.8135 44.0852 39.8684 44.5494 42.7653 45.4176ZM92.0924 19.4444L96.391 19.444C113.484 19.4426 129.409 35.2474 129.407 57.4617C129.406 79.6761 113.478 95.4834 96.3848 95.4848L67.3047 95.4872L67.306 80.0462C67.3069 69.1761 62.795 59.4328 55.6632 52.8389C59.5022 32.9668 75.1729 19.4457 92.0924 19.4444ZM40.5652 60.0476C40.6452 60.1528 40.9597 60.2881 41.4444 60.4486C48.0607 63.675 53.0418 70.9075 53.041 80.0474L53.0398 95.4836L30.8485 95.4854C22.325 95.4861 14.2665 87.8963 14.2674 77.0536C14.2683 66.2109 22.3279 58.6198 30.8515 58.6191L33.6558 58.6189C36.0392 58.6187 38.3801 59.1186 40.5652 60.0476ZM130.931 93.3461C132.773 94.2728 134.754 94.8987 136.8 95.1946C139.819 95.6311 142.897 95.3372 145.784 94.3369C148.671 93.3365 151.286 91.6578 153.418 89.4365C155.55 87.2152 157.139 84.5137 158.056 81.5508C158.973 78.5879 159.192 75.4467 158.696 72.3816C158.201 69.3164 157.003 66.4134 155.202 63.9075C153.4 61.4015 151.044 59.3631 148.325 57.9571C146.843 57.1903 145.274 56.6234 143.66 56.266C143.668 56.6631 143.672 57.0613 143.672 57.4606C143.671 71.3342 138.833 83.9525 130.931 93.3461Z" fill="url(#paint0_linear_4015_5)"/>
<path d="M165.224 25.1044C171.921 25.1039 177.35 19.6133 177.35 12.8409C177.351 6.06848 171.923 0.578791 165.226 0.579336C158.53 0.579881 153.101 6.07045 153.1 12.8429C153.1 19.6153 158.528 25.105 165.224 25.1044Z" fill="url(#paint1_linear_4015_5)"/>
<defs>
<linearGradient id="paint0_linear_4015_5" x1="0.00381997" y1="54.5168" x2="173.025" y2="50.9266" gradientUnits="userSpaceOnUse">
<stop offset="0.425" stop-color="#00AAFF"/>
<stop offset="1" stop-color="#00AAFF"/>
</linearGradient>
<linearGradient id="paint1_linear_4015_5" x1="153.1" y1="12.8409" x2="177.35" y2="12.839" gradientUnits="userSpaceOnUse">
<stop offset="0.405" stop-color="#FF9933"/>
<stop offset="1" stop-color="#FF9933"/>
</linearGradient>
</defs>
</svg>
